{
 "cells": [
  {
   "cell_type": "markdown",
   "id": "37788e3b",
   "metadata": {},
   "source": [
    "# Creation of the final video"
   ]
  },
  {
   "cell_type": "code",
   "execution_count": 4,
   "id": "31ecb6f2",
   "metadata": {},
   "outputs": [],
   "source": [
    "from pathlib import Path\n",
    "import subprocess"
   ]
  },
  {
   "cell_type": "code",
   "execution_count": 5,
   "id": "3d3d89d2",
   "metadata": {},
   "outputs": [],
   "source": [
    "VIDEO_NUMBER = \"3\"\n",
    "PROJECT_ROOT = Path().resolve().parent.parent\n",
    "INPUT_VIDEO_PATH = str(PROJECT_ROOT / \"data\" / f\"recording_{VIDEO_NUMBER}\" / f\"Tracked_output_{VIDEO_NUMBER}.mp4\")\n",
    "INPUT_VIDEO_LANE = str(PROJECT_ROOT / \"data\" / f\"recording_{VIDEO_NUMBER}\" / f\"Reconstructed_trajectory_deformed_{VIDEO_NUMBER}.mp4\")\n",
    "INPUT_VIDEO_SPHERE = str(PROJECT_ROOT / \"data\" / f\"recording_{VIDEO_NUMBER}\" / \"test_video\" / f\"Rotating_sphere.mp4\")\n",
    "\n",
    "OUTPUT_PATH = str(PROJECT_ROOT / \"data\" / f\"recording_{VIDEO_NUMBER}\" / f\"Final_{VIDEO_NUMBER}.mp4\")"
   ]
  },
  {
   "cell_type": "code",
   "execution_count": 6,
   "id": "72af2911",
   "metadata": {},
   "outputs": [
    {
     "name": "stderr",
     "output_type": "stream",
     "text": [
      "ffmpeg version 6.1.1-3ubuntu5 Copyright (c) 2000-2023 the FFmpeg developers\n",
      "  built with gcc 13 (Ubuntu 13.2.0-23ubuntu3)\n",
      "  configuration: --prefix=/usr --extra-version=3ubuntu5 --toolchain=hardened --libdir=/usr/lib/x86_64-linux-gnu --incdir=/usr/include/x86_64-linux-gnu --arch=amd64 --enable-gpl --disable-stripping --disable-omx --enable-gnutls --enable-libaom --enable-libass --enable-libbs2b --enable-libcaca --enable-libcdio --enable-libcodec2 --enable-libdav1d --enable-libflite --enable-libfontconfig --enable-libfreetype --enable-libfribidi --enable-libglslang --enable-libgme --enable-libgsm --enable-libharfbuzz --enable-libmp3lame --enable-libmysofa --enable-libopenjpeg --enable-libopenmpt --enable-libopus --enable-librubberband --enable-libshine --enable-libsnappy --enable-libsoxr --enable-libspeex --enable-libtheora --enable-libtwolame --enable-libvidstab --enable-libvorbis --enable-libvpx --enable-libwebp --enable-libx265 --enable-libxml2 --enable-libxvid --enable-libzimg --enable-openal --enable-opencl --enable-opengl --disable-sndio --enable-libvpl --disable-libmfx --enable-libdc1394 --enable-libdrm --enable-libiec61883 --enable-chromaprint --enable-frei0r --enable-ladspa --enable-libbluray --enable-libjack --enable-libpulse --enable-librabbitmq --enable-librist --enable-libsrt --enable-libssh --enable-libsvtav1 --enable-libx264 --enable-libzmq --enable-libzvbi --enable-lv2 --enable-sdl2 --enable-libplacebo --enable-librav1e --enable-pocketsphinx --enable-librsvg --enable-libjxl --enable-shared\n",
      "  libavutil      58. 29.100 / 58. 29.100\n",
      "  libavcodec     60. 31.102 / 60. 31.102\n",
      "  libavformat    60. 16.100 / 60. 16.100\n",
      "  libavdevice    60.  3.100 / 60.  3.100\n",
      "  libavfilter     9. 12.100 /  9. 12.100\n",
      "  libswscale      7.  5.100 /  7.  5.100\n",
      "  libswresample   4. 12.100 /  4. 12.100\n",
      "  libpostproc    57.  3.100 / 57.  3.100\n",
      "Input #0, mov,mp4,m4a,3gp,3g2,mj2, from '/home/davic/projects/IACV_project/bowling-analysis/data/recording_3/Reconstructed_trajectory_deformed_3.mp4':\n",
      "  Metadata:\n",
      "    major_brand     : isom\n",
      "    minor_version   : 512\n",
      "    compatible_brands: isomiso2mp41\n",
      "    encoder         : Lavf59.27.100\n",
      "  Duration: 00:00:03.85, start: 0.000000, bitrate: 3535 kb/s\n",
      "  Stream #0:0[0x1](und): Video: mpeg4 (Simple Profile) (mp4v / 0x7634706D), yuv420p, 684x2340 [SAR 1:1 DAR 19:65], 3531 kb/s, 59 fps, 59 tbr, 15104 tbn (default)\n",
      "    Metadata:\n",
      "      handler_name    : VideoHandler\n",
      "      vendor_id       : [0][0][0][0]\n",
      "Stream mapping:\n",
      "  Stream #0:0 -> #0:0 (mpeg4 (native) -> h264 (libx264))\n",
      "Press [q] to stop, [?] for help\n",
      "[libx264 @ 0x560442753080] using SAR=1026/1027\n",
      "[libx264 @ 0x560442753080] using cpu capabilities: MMX2 SSE2Fast SSSE3 SSE4.2 AVX FMA3 BMI2 AVX2\n",
      "[libx264 @ 0x560442753080] profile High, level 3.1, 4:2:0, 8-bit\n",
      "[libx264 @ 0x560442753080] 264 - core 164 r3108 31e19f9 - H.264/MPEG-4 AVC codec - Copyleft 2003-2023 - http://www.videolan.org/x264.html - options: cabac=1 ref=2 deblock=1:0:0 analyse=0x3:0x113 me=hex subme=6 psy=1 psy_rd=1.00:0.00 mixed_ref=1 me_range=16 chroma_me=1 trellis=1 8x8dct=1 cqm=0 deadzone=21,11 fast_pskip=1 chroma_qp_offset=-2 threads=18 lookahead_threads=3 sliced_threads=0 nr=0 decimate=1 interlaced=0 bluray_compat=0 constrained_intra=0 bframes=3 b_pyramid=2 b_adapt=1 b_bias=0 direct=1 weightb=1 open_gop=0 weightp=1 keyint=250 keyint_min=25 scenecut=40 intra_refresh=0 rc_lookahead=30 rc=crf mbtree=1 crf=18.0 qcomp=0.60 qpmin=0 qpmax=69 qpstep=4 ip_ratio=1.40 aq=1:1.00\n",
      "Output #0, mp4, to 'resized_right_video.mp4':\n",
      "  Metadata:\n",
      "    major_brand     : isom\n",
      "    minor_version   : 512\n",
      "    compatible_brands: isomiso2mp41\n",
      "    encoder         : Lavf60.16.100\n",
      "  Stream #0:0(und): Video: h264 (avc1 / 0x31637661), yuv420p(tv, progressive), 316x1080 [SAR 1026:1027 DAR 19:65], q=2-31, 59 fps, 15104 tbn (default)\n",
      "    Metadata:\n",
      "      handler_name    : VideoHandler\n",
      "      vendor_id       : [0][0][0][0]\n",
      "      encoder         : Lavc60.31.102 libx264\n",
      "    Side data:\n",
      "      cpb: bitrate max/min/avg: 0/0/0 buffer size: 0 vbv_delay: N/A\n",
      "[out#0/mp4 @ 0x56044274ea80] video:31kB audio:0kB subtitle:0kB other streams:0kB global headers:0kB muxing overhead: 10.575940%\n",
      "frame=  227 fps=0.0 q=-1.0 Lsize=      34kB time=00:00:03.79 bitrate=  72.9kbits/s speed=4.91x    \n",
      "[libx264 @ 0x560442753080] frame I:1     Avg QP:14.77  size:  6788\n",
      "[libx264 @ 0x560442753080] frame P:94    Avg QP:18.47  size:   191\n",
      "[libx264 @ 0x560442753080] frame B:132   Avg QP:29.20  size:    44\n",
      "[libx264 @ 0x560442753080] consecutive B-frames: 17.6% 10.6% 11.9% 59.9%\n",
      "[libx264 @ 0x560442753080] mb I  I16..4: 34.8% 54.8% 10.4%\n",
      "[libx264 @ 0x560442753080] mb P  I16..4:  0.3%  0.4%  0.0%  P16..4:  1.0%  0.2%  0.2%  0.0%  0.0%    skip:97.7%\n",
      "[libx264 @ 0x560442753080] mb B  I16..4:  0.0%  0.0%  0.0%  B16..8:  0.5%  0.1%  0.0%  direct: 0.0%  skip:99.4%  L0:50.5% L1:48.8% BI: 0.7%\n",
      "[libx264 @ 0x560442753080] 8x8 transform intra:53.8% inter:60.3%\n",
      "[libx264 @ 0x560442753080] coded y,uvDC,uvAC intra: 11.3% 21.2% 15.2% inter: 0.1% 0.4% 0.1%\n",
      "[libx264 @ 0x560442753080] i16 v,h,dc,p: 50% 48%  1%  1%\n",
      "[libx264 @ 0x560442753080] i8 v,h,dc,ddl,ddr,vr,hd,vl,hu: 45% 14% 39%  0%  0%  0%  0%  0%  0%\n",
      "[libx264 @ 0x560442753080] i4 v,h,dc,ddl,ddr,vr,hd,vl,hu: 39% 34% 15%  1%  2%  2%  3%  2%  2%\n",
      "[libx264 @ 0x560442753080] i8c dc,h,v,p: 60% 22% 18%  0%\n",
      "[libx264 @ 0x560442753080] Weighted P-Frames: Y:0.0% UV:0.0%\n",
      "[libx264 @ 0x560442753080] ref P L0: 84.0% 16.0%\n",
      "[libx264 @ 0x560442753080] ref B L0: 88.1% 11.9%\n",
      "[libx264 @ 0x560442753080] ref B L1: 91.1%  8.9%\n",
      "[libx264 @ 0x560442753080] kb/s:63.62\n",
      "ffmpeg version 6.1.1-3ubuntu5 Copyright (c) 2000-2023 the FFmpeg developers\n",
      "  built with gcc 13 (Ubuntu 13.2.0-23ubuntu3)\n",
      "  configuration: --prefix=/usr --extra-version=3ubuntu5 --toolchain=hardened --libdir=/usr/lib/x86_64-linux-gnu --incdir=/usr/include/x86_64-linux-gnu --arch=amd64 --enable-gpl --disable-stripping --disable-omx --enable-gnutls --enable-libaom --enable-libass --enable-libbs2b --enable-libcaca --enable-libcdio --enable-libcodec2 --enable-libdav1d --enable-libflite --enable-libfontconfig --enable-libfreetype --enable-libfribidi --enable-libglslang --enable-libgme --enable-libgsm --enable-libharfbuzz --enable-libmp3lame --enable-libmysofa --enable-libopenjpeg --enable-libopenmpt --enable-libopus --enable-librubberband --enable-libshine --enable-libsnappy --enable-libsoxr --enable-libspeex --enable-libtheora --enable-libtwolame --enable-libvidstab --enable-libvorbis --enable-libvpx --enable-libwebp --enable-libx265 --enable-libxml2 --enable-libxvid --enable-libzimg --enable-openal --enable-opencl --enable-opengl --disable-sndio --enable-libvpl --disable-libmfx --enable-libdc1394 --enable-libdrm --enable-libiec61883 --enable-chromaprint --enable-frei0r --enable-ladspa --enable-libbluray --enable-libjack --enable-libpulse --enable-librabbitmq --enable-librist --enable-libsrt --enable-libssh --enable-libsvtav1 --enable-libx264 --enable-libzmq --enable-libzvbi --enable-lv2 --enable-sdl2 --enable-libplacebo --enable-librav1e --enable-pocketsphinx --enable-librsvg --enable-libjxl --enable-shared\n",
      "  libavutil      58. 29.100 / 58. 29.100\n",
      "  libavcodec     60. 31.102 / 60. 31.102\n",
      "  libavformat    60. 16.100 / 60. 16.100\n",
      "  libavdevice    60.  3.100 / 60.  3.100\n",
      "  libavfilter     9. 12.100 /  9. 12.100\n",
      "  libswscale      7.  5.100 /  7.  5.100\n",
      "  libswresample   4. 12.100 /  4. 12.100\n",
      "  libpostproc    57.  3.100 / 57.  3.100\n",
      "Input #0, mov,mp4,m4a,3gp,3g2,mj2, from '/home/davic/projects/IACV_project/bowling-analysis/data/recording_3/test_video/Rotating_sphere.mp4':\n",
      "  Metadata:\n",
      "    major_brand     : isom\n",
      "    minor_version   : 512\n",
      "    compatible_brands: isomiso2avc1mp41\n",
      "    title           : Rotating Sphere with Axis DF\n",
      "    encoder         : Lavf61.7.100\n",
      "  Duration: 00:00:03.78, start: 0.000000, bitrate: 264 kb/s\n",
      "  Stream #0:0[0x1](und): Video: h264 (High) (avc1 / 0x31637661), yuv420p(progressive), 374x374, 257 kb/s, 60 fps, 60 tbr, 15360 tbn (default)\n",
      "    Metadata:\n",
      "      handler_name    : VideoHandler\n",
      "      vendor_id       : [0][0][0][0]\n",
      "      encoder         : Lavc61.19.101 libx264\n",
      "Stream mapping:\n",
      "  Stream #0:0 -> #0:0 (h264 (native) -> h264 (libx264))\n",
      "Press [q] to stop, [?] for help\n",
      "[libx264 @ 0x55673127bc80] using cpu capabilities: MMX2 SSE2Fast SSSE3 SSE4.2 AVX FMA3 BMI2 AVX2\n",
      "[libx264 @ 0x55673127bc80] profile High, level 3.0, 4:2:0, 8-bit\n",
      "[libx264 @ 0x55673127bc80] 264 - core 164 r3108 31e19f9 - H.264/MPEG-4 AVC codec - Copyleft 2003-2023 - http://www.videolan.org/x264.html - options: cabac=1 ref=2 deblock=1:0:0 analyse=0x3:0x113 me=hex subme=6 psy=1 psy_rd=1.00:0.00 mixed_ref=1 me_range=16 chroma_me=1 trellis=1 8x8dct=1 cqm=0 deadzone=21,11 fast_pskip=1 chroma_qp_offset=-2 threads=9 lookahead_threads=1 sliced_threads=0 nr=0 decimate=1 interlaced=0 bluray_compat=0 constrained_intra=0 bframes=3 b_pyramid=2 b_adapt=1 b_bias=0 direct=1 weightb=1 open_gop=0 weightp=1 keyint=250 keyint_min=25 scenecut=40 intra_refresh=0 rc_lookahead=30 rc=crf mbtree=1 crf=18.0 qcomp=0.60 qpmin=0 qpmax=69 qpstep=4 ip_ratio=1.40 aq=1:1.00\n",
      "Output #0, mp4, to 'resized_sphere_video.mp4':\n",
      "  Metadata:\n",
      "    major_brand     : isom\n",
      "    minor_version   : 512\n",
      "    compatible_brands: isomiso2avc1mp41\n",
      "    title           : Rotating Sphere with Axis DF\n",
      "    encoder         : Lavf60.16.100\n",
      "  Stream #0:0(und): Video: h264 (avc1 / 0x31637661), yuv420p(tv, progressive), 300x300, q=2-31, 60 fps, 15360 tbn (default)\n",
      "    Metadata:\n",
      "      handler_name    : VideoHandler\n",
      "      vendor_id       : [0][0][0][0]\n",
      "      encoder         : Lavc60.31.102 libx264\n",
      "    Side data:\n",
      "      cpb: bitrate max/min/avg: 0/0/0 buffer size: 0 vbv_delay: N/A\n",
      "[out#0/mp4 @ 0x5567311a1900] video:130kB audio:0kB subtitle:0kB other streams:0kB global headers:0kB muxing overhead: 2.685771%\n",
      "frame=  227 fps=0.0 q=-1.0 Lsize=     134kB time=00:00:03.73 bitrate= 293.6kbits/s speed=15.9x    \n",
      "[libx264 @ 0x55673127bc80] frame I:2     Avg QP:13.63  size: 11520\n",
      "[libx264 @ 0x55673127bc80] frame P:59    Avg QP:16.60  size:   958\n",
      "[libx264 @ 0x55673127bc80] frame B:166   Avg QP:18.04  size:   320\n",
      "[libx264 @ 0x55673127bc80] consecutive B-frames:  1.3%  0.9%  7.9% 89.9%\n",
      "[libx264 @ 0x55673127bc80] mb I  I16..4: 19.1% 50.7% 30.2%\n",
      "[libx264 @ 0x55673127bc80] mb P  I16..4:  3.1%  5.6%  3.0%  P16..4:  6.9%  2.3%  1.0%  0.0%  0.0%    skip:78.0%\n",
      "[libx264 @ 0x55673127bc80] mb B  I16..4:  0.7%  1.0%  0.5%  B16..8:  7.3%  2.7%  0.4%  direct: 1.7%  skip:85.7%  L0:49.9% L1:46.2% BI: 4.0%\n",
      "[libx264 @ 0x55673127bc80] 8x8 transform intra:47.4% inter:33.4%\n",
      "[libx264 @ 0x55673127bc80] coded y,uvDC,uvAC intra: 49.6% 81.4% 46.6% inter: 2.0% 4.2% 0.6%\n",
      "[libx264 @ 0x55673127bc80] i16 v,h,dc,p: 25% 13%  8% 54%\n",
      "[libx264 @ 0x55673127bc80] i8 v,h,dc,ddl,ddr,vr,hd,vl,hu: 21% 17% 25% 11%  4%  4%  5%  7%  7%\n",
      "[libx264 @ 0x55673127bc80] i4 v,h,dc,ddl,ddr,vr,hd,vl,hu: 24% 18% 27%  6%  5%  5%  5%  5%  4%\n",
      "[libx264 @ 0x55673127bc80] i8c dc,h,v,p: 47% 23% 21%  9%\n",
      "[libx264 @ 0x55673127bc80] Weighted P-Frames: Y:0.0% UV:0.0%\n",
      "[libx264 @ 0x55673127bc80] ref P L0: 76.0% 24.0%\n",
      "[libx264 @ 0x55673127bc80] ref B L0: 81.4% 18.6%\n",
      "[libx264 @ 0x55673127bc80] ref B L1: 93.7%  6.3%\n",
      "[libx264 @ 0x55673127bc80] kb/s:280.72\n",
      "ffmpeg version 6.1.1-3ubuntu5 Copyright (c) 2000-2023 the FFmpeg developers\n",
      "  built with gcc 13 (Ubuntu 13.2.0-23ubuntu3)\n",
      "  configuration: --prefix=/usr --extra-version=3ubuntu5 --toolchain=hardened --libdir=/usr/lib/x86_64-linux-gnu --incdir=/usr/include/x86_64-linux-gnu --arch=amd64 --enable-gpl --disable-stripping --disable-omx --enable-gnutls --enable-libaom --enable-libass --enable-libbs2b --enable-libcaca --enable-libcdio --enable-libcodec2 --enable-libdav1d --enable-libflite --enable-libfontconfig --enable-libfreetype --enable-libfribidi --enable-libglslang --enable-libgme --enable-libgsm --enable-libharfbuzz --enable-libmp3lame --enable-libmysofa --enable-libopenjpeg --enable-libopenmpt --enable-libopus --enable-librubberband --enable-libshine --enable-libsnappy --enable-libsoxr --enable-libspeex --enable-libtheora --enable-libtwolame --enable-libvidstab --enable-libvorbis --enable-libvpx --enable-libwebp --enable-libx265 --enable-libxml2 --enable-libxvid --enable-libzimg --enable-openal --enable-opencl --enable-opengl --disable-sndio --enable-libvpl --disable-libmfx --enable-libdc1394 --enable-libdrm --enable-libiec61883 --enable-chromaprint --enable-frei0r --enable-ladspa --enable-libbluray --enable-libjack --enable-libpulse --enable-librabbitmq --enable-librist --enable-libsrt --enable-libssh --enable-libsvtav1 --enable-libx264 --enable-libzmq --enable-libzvbi --enable-lv2 --enable-sdl2 --enable-libplacebo --enable-librav1e --enable-pocketsphinx --enable-librsvg --enable-libjxl --enable-shared\n",
      "  libavutil      58. 29.100 / 58. 29.100\n",
      "  libavcodec     60. 31.102 / 60. 31.102\n",
      "  libavformat    60. 16.100 / 60. 16.100\n",
      "  libavdevice    60.  3.100 / 60.  3.100\n",
      "  libavfilter     9. 12.100 /  9. 12.100\n",
      "  libswscale      7.  5.100 /  7.  5.100\n",
      "  libswresample   4. 12.100 /  4. 12.100\n",
      "  libpostproc    57.  3.100 / 57.  3.100\n",
      "Input #0, mov,mp4,m4a,3gp,3g2,mj2, from '/home/davic/projects/IACV_project/bowling-analysis/data/recording_3/Tracked_output_3.mp4':\n",
      "  Metadata:\n",
      "    major_brand     : isom\n",
      "    minor_version   : 512\n",
      "    compatible_brands: isomiso2mp41\n",
      "    encoder         : Lavf59.27.100\n",
      "  Duration: 00:00:03.85, start: 0.000000, bitrate: 39686 kb/s\n",
      "  Stream #0:0[0x1](und): Video: mpeg4 (Simple Profile) (mp4v / 0x7634706D), yuv420p, 1920x1080 [SAR 1:1 DAR 16:9], 39682 kb/s, 59 fps, 59 tbr, 15104 tbn (default)\n",
      "    Metadata:\n",
      "      handler_name    : VideoHandler\n",
      "      vendor_id       : [0][0][0][0]\n",
      "Input #1, mov,mp4,m4a,3gp,3g2,mj2, from 'resized_sphere_video.mp4':\n",
      "  Metadata:\n",
      "    major_brand     : isom\n",
      "    minor_version   : 512\n",
      "    compatible_brands: isomiso2avc1mp41\n",
      "    title           : Rotating Sphere with Axis DF\n",
      "    encoder         : Lavf60.16.100\n",
      "  Duration: 00:00:03.78, start: 0.000000, bitrate: 289 kb/s\n",
      "  Stream #1:0[0x1](und): Video: h264 (High) (avc1 / 0x31637661), yuv420p(progressive), 300x300, 282 kb/s, 60 fps, 60 tbr, 15360 tbn (default)\n",
      "    Metadata:\n",
      "      handler_name    : VideoHandler\n",
      "      vendor_id       : [0][0][0][0]\n",
      "      encoder         : Lavc60.31.102 libx264\n",
      "Stream mapping:\n",
      "  Stream #0:0 (mpeg4) -> overlay\n",
      "  Stream #1:0 (h264) -> overlay\n",
      "  overlay:default -> Stream #0:0 (libx264)\n",
      "Press [q] to stop, [?] for help\n",
      "[libx264 @ 0x55c8e7290c40] using SAR=1/1\n",
      "[libx264 @ 0x55c8e7290c40] using cpu capabilities: MMX2 SSE2Fast SSSE3 SSE4.2 AVX FMA3 BMI2 AVX2\n",
      "[libx264 @ 0x55c8e7290c40] profile High, level 4.2, 4:2:0, 8-bit\n",
      "[libx264 @ 0x55c8e7290c40] 264 - core 164 r3108 31e19f9 - H.264/MPEG-4 AVC codec - Copyleft 2003-2023 - http://www.videolan.org/x264.html - options: cabac=1 ref=2 deblock=1:0:0 analyse=0x3:0x113 me=hex subme=6 psy=1 psy_rd=1.00:0.00 mixed_ref=1 me_range=16 chroma_me=1 trellis=1 8x8dct=1 cqm=0 deadzone=21,11 fast_pskip=1 chroma_qp_offset=-2 threads=18 lookahead_threads=3 sliced_threads=0 nr=0 decimate=1 interlaced=0 bluray_compat=0 constrained_intra=0 bframes=3 b_pyramid=2 b_adapt=1 b_bias=0 direct=1 weightb=1 open_gop=0 weightp=1 keyint=250 keyint_min=25 scenecut=40 intra_refresh=0 rc_lookahead=30 rc=crf mbtree=1 crf=18.0 qcomp=0.60 qpmin=0 qpmax=69 qpstep=4 ip_ratio=1.40 aq=1:1.00\n",
      "Output #0, mp4, to 'overlayed_left_video.mp4':\n",
      "  Metadata:\n",
      "    major_brand     : isom\n",
      "    minor_version   : 512\n",
      "    compatible_brands: isomiso2mp41\n",
      "    encoder         : Lavf60.16.100\n",
      "  Stream #0:0: Video: h264 (avc1 / 0x31637661), yuv420p(progressive), 1920x1080 [SAR 1:1 DAR 16:9], q=2-31, 59 fps, 15104 tbn\n",
      "    Metadata:\n",
      "      encoder         : Lavc60.31.102 libx264\n",
      "    Side data:\n",
      "      cpb: bitrate max/min/avg: 0/0/0 buffer size: 0 vbv_delay: N/A\n",
      "[out#0/mp4 @ 0x55c8e728f9c0] video:8943kB audio:0kB subtitle:0kB other streams:0kB global headers:0kB muxing overhead: 0.033001%\n",
      "frame=  227 fps= 49 q=-1.0 Lsize=    8946kB time=00:00:03.79 bitrate=19302.0kbits/s speed=0.814x    \n",
      "[libx264 @ 0x55c8e7290c40] frame I:1     Avg QP:19.74  size: 97479\n",
      "[libx264 @ 0x55c8e7290c40] frame P:135   Avg QP:21.04  size: 52699\n",
      "[libx264 @ 0x55c8e7290c40] frame B:91    Avg QP:24.81  size: 21370\n",
      "[libx264 @ 0x55c8e7290c40] consecutive B-frames: 40.5% 13.2% 14.5% 31.7%\n",
      "[libx264 @ 0x55c8e7290c40] mb I  I16..4: 27.9% 69.1%  3.1%\n",
      "[libx264 @ 0x55c8e7290c40] mb P  I16..4:  2.0%  6.7%  0.9%  P16..4: 52.9% 16.5%  7.8%  0.0%  0.0%    skip:13.2%\n",
      "[libx264 @ 0x55c8e7290c40] mb B  I16..4:  1.2%  4.8%  0.3%  B16..8: 43.5%  8.4%  0.8%  direct:11.5%  skip:29.7%  L0:50.4% L1:37.0% BI:12.6%\n",
      "[libx264 @ 0x55c8e7290c40] 8x8 transform intra:71.3% inter:66.3%\n",
      "[libx264 @ 0x55c8e7290c40] coded y,uvDC,uvAC intra: 54.2% 77.7% 21.4% inter: 21.4% 27.4% 1.1%\n",
      "[libx264 @ 0x55c8e7290c40] i16 v,h,dc,p: 35% 32% 24%  9%\n",
      "[libx264 @ 0x55c8e7290c40] i8 v,h,dc,ddl,ddr,vr,hd,vl,hu: 25% 22% 33%  4%  2%  3%  2%  4%  4%\n",
      "[libx264 @ 0x55c8e7290c40] i4 v,h,dc,ddl,ddr,vr,hd,vl,hu: 27% 26% 16%  5%  6%  6%  6%  5%  4%\n",
      "[libx264 @ 0x55c8e7290c40] i8c dc,h,v,p: 44% 25% 23%  7%\n",
      "[libx264 @ 0x55c8e7290c40] Weighted P-Frames: Y:0.0% UV:0.0%\n",
      "[libx264 @ 0x55c8e7290c40] ref P L0: 84.7% 15.3%\n",
      "[libx264 @ 0x55c8e7290c40] ref B L0: 89.6% 10.4%\n",
      "[libx264 @ 0x55c8e7290c40] ref B L1: 99.0%  1.0%\n",
      "[libx264 @ 0x55c8e7290c40] kb/s:19039.23\n",
      "ffmpeg version 6.1.1-3ubuntu5 Copyright (c) 2000-2023 the FFmpeg developers\n",
      "  built with gcc 13 (Ubuntu 13.2.0-23ubuntu3)\n",
      "  configuration: --prefix=/usr --extra-version=3ubuntu5 --toolchain=hardened --libdir=/usr/lib/x86_64-linux-gnu --incdir=/usr/include/x86_64-linux-gnu --arch=amd64 --enable-gpl --disable-stripping --disable-omx --enable-gnutls --enable-libaom --enable-libass --enable-libbs2b --enable-libcaca --enable-libcdio --enable-libcodec2 --enable-libdav1d --enable-libflite --enable-libfontconfig --enable-libfreetype --enable-libfribidi --enable-libglslang --enable-libgme --enable-libgsm --enable-libharfbuzz --enable-libmp3lame --enable-libmysofa --enable-libopenjpeg --enable-libopenmpt --enable-libopus --enable-librubberband --enable-libshine --enable-libsnappy --enable-libsoxr --enable-libspeex --enable-libtheora --enable-libtwolame --enable-libvidstab --enable-libvorbis --enable-libvpx --enable-libwebp --enable-libx265 --enable-libxml2 --enable-libxvid --enable-libzimg --enable-openal --enable-opencl --enable-opengl --disable-sndio --enable-libvpl --disable-libmfx --enable-libdc1394 --enable-libdrm --enable-libiec61883 --enable-chromaprint --enable-frei0r --enable-ladspa --enable-libbluray --enable-libjack --enable-libpulse --enable-librabbitmq --enable-librist --enable-libsrt --enable-libssh --enable-libsvtav1 --enable-libx264 --enable-libzmq --enable-libzvbi --enable-lv2 --enable-sdl2 --enable-libplacebo --enable-librav1e --enable-pocketsphinx --enable-librsvg --enable-libjxl --enable-shared\n",
      "  libavutil      58. 29.100 / 58. 29.100\n",
      "  libavcodec     60. 31.102 / 60. 31.102\n",
      "  libavformat    60. 16.100 / 60. 16.100\n",
      "  libavdevice    60.  3.100 / 60.  3.100\n",
      "  libavfilter     9. 12.100 /  9. 12.100\n",
      "  libswscale      7.  5.100 /  7.  5.100\n",
      "  libswresample   4. 12.100 /  4. 12.100\n",
      "  libpostproc    57.  3.100 / 57.  3.100\n",
      "Input #0, mov,mp4,m4a,3gp,3g2,mj2, from 'overlayed_left_video.mp4':\n",
      "  Metadata:\n",
      "    major_brand     : isom\n",
      "    minor_version   : 512\n",
      "    compatible_brands: isomiso2avc1mp41\n",
      "    encoder         : Lavf60.16.100\n",
      "  Duration: 00:00:03.85, start: 0.000000, bitrate: 19046 kb/s\n",
      "  Stream #0:0[0x1](und): Video: h264 (High) (avc1 / 0x31637661), yuv420p(progressive), 1920x1080 [SAR 1:1 DAR 16:9], 19040 kb/s, 59 fps, 59 tbr, 15104 tbn (default)\n",
      "    Metadata:\n",
      "      handler_name    : VideoHandler\n",
      "      vendor_id       : [0][0][0][0]\n",
      "      encoder         : Lavc60.31.102 libx264\n",
      "Input #1, mov,mp4,m4a,3gp,3g2,mj2, from 'resized_right_video.mp4':\n",
      "  Metadata:\n",
      "    major_brand     : isom\n",
      "    minor_version   : 512\n",
      "    compatible_brands: isomiso2avc1mp41\n",
      "    encoder         : Lavf60.16.100\n",
      "  Duration: 00:00:03.85, start: 0.000000, bitrate: 71 kb/s\n",
      "  Stream #1:0[0x1](und): Video: h264 (High) (avc1 / 0x31637661), yuv420p(progressive), 316x1080 [SAR 1026:1027 DAR 19:65], 65 kb/s, 59 fps, 59 tbr, 15104 tbn (default)\n",
      "    Metadata:\n",
      "      handler_name    : VideoHandler\n",
      "      vendor_id       : [0][0][0][0]\n",
      "      encoder         : Lavc60.31.102 libx264\n",
      "Stream mapping:\n",
      "  Stream #0:0 (h264) -> hstack\n",
      "  Stream #1:0 (h264) -> hstack\n",
      "  hstack:default -> Stream #0:0 (libx264)\n",
      "Press [q] to stop, [?] for help\n",
      "[libx264 @ 0x56437b779140] using SAR=1/1\n",
      "[libx264 @ 0x56437b779140] using cpu capabilities: MMX2 SSE2Fast SSSE3 SSE4.2 AVX FMA3 BMI2 AVX2\n",
      "[libx264 @ 0x56437b779140] profile High, level 5.0, 4:2:0, 8-bit\n",
      "[libx264 @ 0x56437b779140] 264 - core 164 r3108 31e19f9 - H.264/MPEG-4 AVC codec - Copyleft 2003-2023 - http://www.videolan.org/x264.html - options: cabac=1 ref=2 deblock=1:0:0 analyse=0x3:0x113 me=hex subme=6 psy=1 psy_rd=1.00:0.00 mixed_ref=1 me_range=16 chroma_me=1 trellis=1 8x8dct=1 cqm=0 deadzone=21,11 fast_pskip=1 chroma_qp_offset=-2 threads=18 lookahead_threads=3 sliced_threads=0 nr=0 decimate=1 interlaced=0 bluray_compat=0 constrained_intra=0 bframes=3 b_pyramid=2 b_adapt=1 b_bias=0 direct=1 weightb=1 open_gop=0 weightp=1 keyint=250 keyint_min=25 scenecut=40 intra_refresh=0 rc_lookahead=30 rc=crf mbtree=1 crf=18.0 qcomp=0.60 qpmin=0 qpmax=69 qpstep=4 ip_ratio=1.40 aq=1:1.00\n",
      "Output #0, mp4, to '/home/davic/projects/IACV_project/bowling-analysis/data/recording_3/Final_3.mp4':\n",
      "  Metadata:\n",
      "    major_brand     : isom\n",
      "    minor_version   : 512\n",
      "    compatible_brands: isomiso2avc1mp41\n",
      "    encoder         : Lavf60.16.100\n",
      "  Stream #0:0: Video: h264 (avc1 / 0x31637661), yuv420p(progressive), 2236x1080 [SAR 1:1 DAR 559:270], q=2-31, 59 fps, 15104 tbn\n",
      "    Metadata:\n",
      "      encoder         : Lavc60.31.102 libx264\n",
      "    Side data:\n",
      "      cpb: bitrate max/min/avg: 0/0/0 buffer size: 0 vbv_delay: N/A\n",
      "[out#0/mp4 @ 0x56437b777ec0] video:7778kB audio:0kB subtitle:0kB other streams:0kB global headers:0kB muxing overhead: 0.045477%\n",
      "frame=  227 fps= 49 q=-1.0 Lsize=    7781kB time=00:00:03.79 bitrate=16789.8kbits/s speed=0.818x    \n",
      "[libx264 @ 0x56437b779140] frame I:1     Avg QP:19.84  size:106296\n",
      "[libx264 @ 0x56437b779140] frame P:71    Avg QP:20.89  size: 67300\n",
      "[libx264 @ 0x56437b779140] frame B:155   Avg QP:24.26  size: 19865\n",
      "[libx264 @ 0x56437b779140] consecutive B-frames:  4.8% 10.6%  5.3% 79.3%\n",
      "[libx264 @ 0x56437b779140] mb I  I16..4: 18.9% 76.5%  4.6%\n",
      "[libx264 @ 0x56437b779140] mb P  I16..4:  2.8%  8.1%  1.7%  P16..4: 39.9% 18.6%  7.8%  0.0%  0.0%    skip:21.2%\n",
      "[libx264 @ 0x56437b779140] mb B  I16..4:  1.2%  2.1%  0.3%  B16..8: 37.4%  7.6%  0.6%  direct:11.4%  skip:39.4%  L0:49.6% L1:40.4% BI:10.0%\n",
      "[libx264 @ 0x56437b779140] 8x8 transform intra:63.3% inter:59.4%\n",
      "[libx264 @ 0x56437b779140] coded y,uvDC,uvAC intra: 47.9% 78.2% 24.6% inter: 14.5% 26.2% 0.8%\n",
      "[libx264 @ 0x56437b779140] i16 v,h,dc,p: 36% 32% 21% 12%\n",
      "[libx264 @ 0x56437b779140] i8 v,h,dc,ddl,ddr,vr,hd,vl,hu: 25% 22% 27%  5%  3%  4%  4%  5%  5%\n",
      "[libx264 @ 0x56437b779140] i4 v,h,dc,ddl,ddr,vr,hd,vl,hu: 25% 25% 17%  5%  6%  6%  6%  5%  5%\n",
      "[libx264 @ 0x56437b779140] i8c dc,h,v,p: 46% 24% 22%  8%\n",
      "[libx264 @ 0x56437b779140] Weighted P-Frames: Y:0.0% UV:0.0%\n",
      "[libx264 @ 0x56437b779140] ref P L0: 77.5% 22.5%\n",
      "[libx264 @ 0x56437b779140] ref B L0: 91.8%  8.2%\n",
      "[libx264 @ 0x56437b779140] ref B L1: 98.3%  1.7%\n",
      "[libx264 @ 0x56437b779140] kb/s:16558.94\n"
     ]
    },
    {
     "data": {
      "text/plain": [
       "CompletedProcess(args=['rm', 'resized_right_video.mp4', 'resized_sphere_video.mp4', 'overlayed_left_video.mp4'], returncode=0)"
      ]
     },
     "execution_count": 6,
     "metadata": {},
     "output_type": "execute_result"
    }
   ],
   "source": [
    "# Step 1: Get the height of the first video\n",
    "def get_video_height(video_path):\n",
    "    # Use ffprobe to get video dimensions\n",
    "    command = [\n",
    "        'ffprobe', \n",
    "        '-v', 'error', \n",
    "        '-select_streams', 'v:0', \n",
    "        '-show_entries', 'stream=height', \n",
    "        '-of', 'default=noprint_wrappers=1:nokey=1', \n",
    "        video_path\n",
    "    ]\n",
    "    result = subprocess.run(command, stdout=subprocess.PIPE, stderr=subprocess.PIPE)\n",
    "    height = int(result.stdout.decode().strip())\n",
    "    return height\n",
    "\n",
    "# Get the height of the first video (left video)\n",
    "left_video_height = get_video_height(INPUT_VIDEO_PATH)\n",
    "\n",
    "# Step 2: Resize the second video (right video) to match the height of the first video\n",
    "# Construct the ffmpeg command for resizing the second video\n",
    "resized_right_video = \"resized_right_video.mp4\"\n",
    "resize_command = [\n",
    "    'ffmpeg', \n",
    "    '-i', INPUT_VIDEO_LANE, \n",
    "    '-vf', f\"scale=-1:{left_video_height}\",  # Preserve aspect ratio and set height\n",
    "    '-c:v', 'libx264', \n",
    "    '-preset', 'fast', \n",
    "    '-crf', '18', \n",
    "    resized_right_video\n",
    "]\n",
    "subprocess.run(resize_command, check=True)\n",
    "\n",
    "# Step 3: Resize the sphere video to a smaller size (you can adjust the size here)\n",
    "resized_sphere_video = \"resized_sphere_video.mp4\"\n",
    "sphere_width = 300  # Set the desired width for the sphere video\n",
    "resize_sphere_command = [\n",
    "    'ffmpeg', \n",
    "    '-i', INPUT_VIDEO_SPHERE, \n",
    "    '-vf', f\"scale={sphere_width}:-1\",  # Adjust width, keep aspect ratio\n",
    "    '-c:v', 'libx264', \n",
    "    '-preset', 'fast', \n",
    "    '-crf', '18', \n",
    "    resized_sphere_video\n",
    "]\n",
    "subprocess.run(resize_sphere_command, check=True)\n",
    "\n",
    "# Step 4: Overlay the sphere video on the top-right corner of the left video\n",
    "# We will use ffmpeg's overlay filter to place the resized sphere video on top of the left video\n",
    "overlayed_left_video = \"overlayed_left_video.mp4\"\n",
    "overlay_command = [\n",
    "    'ffmpeg', \n",
    "    '-i', INPUT_VIDEO_PATH, \n",
    "    '-i', resized_sphere_video, \n",
    "    '-filter_complex', f\"[0:v][1:v]overlay=W-w-10:10\",  # Top-right corner, with 10px margin\n",
    "    '-c:v', 'libx264', \n",
    "    '-preset', 'fast', \n",
    "    '-crf', '18', \n",
    "    overlayed_left_video\n",
    "]\n",
    "subprocess.run(overlay_command, check=True)\n",
    "\n",
    "# Step 5: Combine the overlayed left video and the resized right video side by side\n",
    "combine_command = [\n",
    "    'ffmpeg', \n",
    "    '-i', overlayed_left_video, \n",
    "    '-i', resized_right_video, \n",
    "    '-filter_complex', \n",
    "    f\"[0:v][1:v]hstack=inputs=2\",  # Concatenate the videos side by side\n",
    "    '-c:v', 'libx264', \n",
    "    '-preset', 'fast', \n",
    "    '-crf', '18', \n",
    "    OUTPUT_PATH\n",
    "]\n",
    "subprocess.run(combine_command, check=True)\n",
    "\n",
    "# Clean up temporary files (optional)\n",
    "subprocess.run(['rm', resized_right_video, resized_sphere_video, overlayed_left_video])"
   ]
  }
 ],
 "metadata": {
  "kernelspec": {
   "display_name": ".venv",
   "language": "python",
   "name": "python3"
  },
  "language_info": {
   "codemirror_mode": {
    "name": "ipython",
    "version": 3
   },
   "file_extension": ".py",
   "mimetype": "text/x-python",
   "name": "python",
   "nbconvert_exporter": "python",
   "pygments_lexer": "ipython3",
   "version": "3.12.3"
  }
 },
 "nbformat": 4,
 "nbformat_minor": 5
}
